<?xml version="1.0" standalone="no"?><!-- Generator: Gravit.io --><svg xmlns="http://www.w3.org/2000/svg" xmlns:xlink="http://www.w3.org/1999/xlink" style="isolation:isolate" viewBox="0 0 737.453 653.279" width="737.453" height="653.279"><defs><clipPath id="_clipPath_IFzCO0GrQcuymywcrf2gOmvRuYNv5fiA"><rect width="737.453" height="653.279"/></clipPath></defs><g clip-path="url(#_clipPath_IFzCO0GrQcuymywcrf2gOmvRuYNv5fiA)"><clipPath id="_clipPath_FbX8xx9LIAqm89LXKkt9j5BzzHrSUAYJ"><rect x="0" y="0" width="737.453" height="653.279" transform="matrix(1,0,0,1,0,0)" fill="rgb(255,255,255)"/></clipPath><g clip-path="url(#_clipPath_FbX8xx9LIAqm89LXKkt9j5BzzHrSUAYJ)"><g id="Group"><g id="Group"><g id="Group"><g id="g12"><path d=" M 57.957 77.823 L 679.495 77.823 C 711.373 77.823 737.453 103.904 737.453 135.78 L 737.453 517.497 C 737.453 549.375 711.373 575.453 679.495 575.453 L 57.957 575.453 C 26.081 575.453 0 549.375 0 517.497 L 0 135.78 C 0 103.904 26.081 77.823 57.957 77.823 Z " fill-rule="evenodd" fill="rgb(118,154,42)"/><path d=" M 69.441 102.973 L 668.01 102.973 C 692.371 102.973 712.302 122.904 712.302 147.264 L 712.302 506.013 C 712.302 530.375 692.373 550.305 668.01 550.305 L 69.442 550.305 C 45.081 550.305 25.149 530.375 25.149 506.013 L 25.149 147.264 C 25.149 122.904 45.081 102.973 69.441 102.973 Z " fill-rule="evenodd" fill="rgb(140,181,38)"/><path d=" M 202.109 415.033 C 201.975 415.119 201.843 415.204 201.71 415.293 L 202.109 415.033 Z  M 411.263 466.129 C 411.13 466.215 410.999 466.303 410.867 466.391 L 411.263 466.129 Z  M 411.263 369.46 C 411.13 369.544 410.999 369.632 410.867 369.72 L 411.263 369.46 Z  M 411.263 272.788 C 411.13 272.875 410.999 272.96 410.867 273.049 L 411.263 272.788 Z  M 411.266 176.117 C 411.13 176.203 410.999 176.289 410.867 176.379 L 411.266 176.117 Z  M 556.854 318.107 L 557.241 318.343 C 557.114 318.263 556.983 318.183 556.854 318.107 Z  M 656.882 102.973 L 668.01 102.973 C 668.291 102.973 668.571 102.977 668.851 102.983 L 668.853 307.867 C 672.389 309.953 674.777 313.804 674.777 318.187 L 674.777 334.528 L 674.777 350.871 C 674.777 355.253 672.389 359.104 668.853 361.191 L 668.853 550.296 C 668.571 550.3 668.291 550.305 668.01 550.305 L 656.882 550.305 L 656.882 361.261 C 653.279 359.193 650.838 355.304 650.838 350.871 L 650.838 348.217 L 650.703 348.139 L 650.618 348.085 L 650.563 348.053 L 650.425 347.967 L 650.405 347.952 L 650.205 347.823 L 650.19 347.813 L 650.15 347.788 L 649.978 347.673 L 649.879 347.604 L 649.77 347.529 C 649.493 347.333 649.223 347.132 648.959 346.92 L 648.959 346.92 C 645.335 344.009 643.011 339.541 643.011 334.528 C 643.011 329.472 645.378 324.968 649.059 322.059 L 649.058 322.059 C 649.621 321.613 650.217 321.207 650.838 320.839 L 650.838 318.187 C 650.838 313.755 653.279 309.865 656.882 307.796 L 656.882 102.973 L 656.882 102.973 Z  M 537.991 102.973 L 549.961 102.973 L 549.961 207.945 C 554.001 209.875 556.806 214.001 556.806 218.755 L 556.806 221.407 C 556.951 221.493 557.097 221.583 557.241 221.673 L 557.269 221.691 C 557.542 221.864 557.809 222.047 558.071 222.237 L 558.079 222.244 C 558.251 222.369 558.419 222.497 558.587 222.628 L 558.583 222.628 C 562.266 225.535 564.63 230.04 564.63 235.096 C 564.63 240.108 562.31 244.577 558.682 247.488 L 558.555 247.588 L 558.487 247.643 L 558.426 247.689 L 558.297 247.788 L 558.285 247.796 L 558.166 247.887 L 558.079 247.948 L 558.034 247.983 L 557.899 248.077 L 557.874 248.096 L 557.765 248.171 L 557.666 248.24 L 557.629 248.264 L 557.494 248.355 L 557.453 248.381 L 557.355 248.445 L 557.241 248.519 L 557.218 248.533 L 557.078 248.62 L 557.023 248.653 L 556.939 248.705 L 556.806 248.784 L 556.806 251.439 C 556.806 256.191 554.001 260.319 549.961 262.247 L 549.961 304.616 C 553.998 306.545 556.806 310.672 556.806 315.425 L 556.806 318.079 L 556.854 318.107 C 556.983 318.183 557.114 318.263 557.241 318.343 L 557.269 318.361 L 557.403 318.449 L 557.453 318.483 C 557.663 318.619 557.87 318.76 558.071 318.908 L 558.079 318.915 C 558.251 319.04 558.419 319.168 558.587 319.299 L 558.583 319.299 C 562.266 322.207 564.63 326.711 564.63 331.768 C 564.63 336.779 562.31 341.248 558.682 344.159 L 558.682 344.159 L 558.499 344.304 L 558.487 344.313 L 558.426 344.36 L 558.297 344.46 L 558.285 344.468 L 558.166 344.557 L 558.079 344.619 L 558.075 344.623 L 557.899 344.751 L 557.874 344.767 L 557.765 344.843 L 557.666 344.912 L 557.629 344.936 L 557.494 345.027 L 557.453 345.053 L 557.425 345.072 L 557.241 345.191 L 557.218 345.204 L 557.078 345.291 L 557.023 345.325 L 556.939 345.376 L 556.806 345.457 L 556.806 348.109 C 556.806 352.863 553.998 356.989 549.961 358.917 L 549.961 401.288 C 553.998 403.216 556.806 407.343 556.806 412.096 L 556.806 414.749 L 556.854 414.777 L 556.991 414.861 L 557.023 414.88 L 557.131 414.947 L 557.241 415.015 L 557.269 415.033 L 557.403 415.119 L 557.453 415.151 L 557.467 415.164 L 557.666 415.293 L 557.675 415.301 L 557.874 415.439 L 557.941 415.485 L 558.071 415.581 L 558.079 415.585 L 558.202 415.676 L 558.285 415.739 L 558.293 415.743 L 558.587 415.972 L 558.586 415.972 C 562.266 418.877 564.63 423.381 564.63 428.439 C 564.63 433.449 562.31 437.917 558.682 440.828 L 558.682 440.828 L 558.499 440.973 L 558.487 440.985 L 558.426 441.029 L 558.297 441.132 L 558.285 441.14 C 558.157 441.235 558.03 441.327 557.899 441.417 L 557.874 441.439 L 557.666 441.583 L 557.629 441.604 L 557.494 441.697 L 557.453 441.721 L 557.425 441.743 C 557.311 441.816 557.194 441.892 557.078 441.963 L 557.023 441.997 L 556.939 442.047 L 556.806 442.127 L 556.806 442.127 L 556.806 444.781 C 556.806 449.532 553.998 453.66 549.961 455.587 L 549.962 550.305 L 537.991 550.305 L 537.991 454.584 C 534.898 452.415 532.867 448.823 532.867 444.781 L 532.867 428.439 L 532.867 412.096 C 532.867 408.055 534.898 404.463 537.991 402.293 L 537.991 357.913 C 534.898 355.744 532.867 352.152 532.867 348.109 L 532.867 331.768 L 532.867 331.768 L 532.867 315.425 C 532.867 311.383 534.898 307.791 537.991 305.621 L 537.991 261.241 C 534.898 259.073 532.867 255.483 532.867 251.439 L 532.867 235.096 L 532.867 218.755 C 532.867 214.711 534.898 211.119 537.991 208.951 L 537.991 102.973 L 537.991 102.973 Z  M 417.773 102.973 L 429.739 102.973 L 429.739 162.861 C 433.278 164.947 435.666 168.799 435.666 173.18 L 435.666 189.523 L 435.666 205.865 C 435.666 210.248 433.278 214.097 429.739 216.183 L 429.739 259.532 C 433.278 261.617 435.666 265.469 435.666 269.852 L 435.666 286.192 L 435.666 286.193 L 435.666 302.536 C 435.666 306.917 433.278 310.768 429.739 312.853 L 429.739 356.204 C 433.278 358.289 435.666 362.14 435.666 366.523 L 435.666 382.864 L 435.666 399.205 C 435.666 403.588 433.278 407.44 429.739 409.527 L 429.739 452.875 C 433.278 454.961 435.666 458.809 435.666 463.193 L 435.666 479.536 L 435.666 495.877 C 435.666 500.26 433.278 504.109 429.739 506.196 L 429.739 550.305 L 417.773 550.305 L 417.773 506.265 C 414.169 504.199 411.727 500.309 411.727 495.877 L 411.727 493.224 L 411.594 493.144 L 411.507 493.092 L 411.453 493.057 L 411.314 492.973 L 411.294 492.959 L 411.094 492.829 L 411.079 492.821 L 411.039 492.795 L 410.867 492.68 L 410.769 492.611 L 410.659 492.533 C 410.382 492.34 410.113 492.139 409.849 491.927 L 409.849 491.927 C 406.225 489.016 403.902 484.547 403.902 479.536 C 403.902 474.477 406.265 469.975 409.947 467.067 L 409.947 467.067 L 410.239 466.84 L 410.247 466.833 L 410.331 466.773 L 410.451 466.683 L 410.461 466.676 L 410.594 466.583 L 410.659 466.536 L 410.725 466.489 L 410.857 466.397 L 410.867 466.391 C 410.999 466.303 411.13 466.215 411.263 466.129 L 411.266 466.129 L 411.294 466.111 L 411.401 466.043 L 411.507 465.977 L 411.541 465.957 L 411.727 465.847 L 411.727 463.193 C 411.727 458.759 414.169 454.871 417.773 452.804 L 417.773 409.596 C 414.169 407.528 411.727 403.639 411.727 399.205 L 411.727 396.552 L 411.594 396.473 L 411.507 396.421 L 411.453 396.388 L 411.314 396.301 L 411.294 396.289 L 411.177 396.212 L 411.15 396.196 L 411.039 396.123 L 410.901 396.032 L 410.867 396.009 L 410.769 395.941 L 410.659 395.864 L 410.633 395.847 L 410.499 395.751 L 410.451 395.716 L 410.367 395.653 L 410.247 395.565 L 410.235 395.556 L 410.105 395.457 L 410.049 395.412 L 409.977 395.357 L 409.849 395.255 C 406.225 392.344 403.902 387.877 403.902 382.864 C 403.902 377.807 406.265 373.307 409.947 370.396 L 409.947 370.396 L 410.239 370.168 L 410.247 370.164 L 410.331 370.103 L 410.451 370.012 L 410.461 370.005 L 410.594 369.911 L 410.659 369.864 L 410.725 369.82 L 410.857 369.727 L 410.867 369.72 C 410.999 369.632 411.13 369.544 411.263 369.46 L 411.266 369.46 L 411.294 369.441 L 411.401 369.372 L 411.507 369.307 L 411.541 369.288 L 411.727 369.176 L 411.727 366.523 C 411.727 362.091 414.169 358.201 417.773 356.132 L 417.773 312.925 C 414.169 310.856 411.727 306.967 411.727 302.536 L 411.727 299.883 L 411.594 299.803 L 411.507 299.751 L 411.453 299.719 L 411.314 299.631 L 411.294 299.616 L 411.177 299.541 L 411.15 299.525 L 411.039 299.451 L 410.901 299.36 L 410.867 299.336 L 410.769 299.269 L 410.659 299.192 L 410.633 299.173 L 410.499 299.079 L 410.451 299.045 L 410.367 298.984 L 410.247 298.893 L 410.235 298.885 L 410.105 298.785 L 410.049 298.74 L 409.977 298.685 L 409.849 298.584 C 406.225 295.673 403.902 291.205 403.902 286.192 C 403.902 281.136 406.265 276.633 409.947 273.724 L 409.947 273.724 L 410.239 273.499 L 410.247 273.492 L 410.331 273.431 L 410.451 273.341 L 410.461 273.335 L 410.594 273.24 L 410.659 273.193 L 410.723 273.148 L 410.857 273.056 L 410.867 273.049 C 410.999 272.96 411.13 272.875 411.263 272.788 L 411.266 272.788 L 411.294 272.771 L 411.401 272.701 L 411.507 272.635 L 411.541 272.616 L 411.727 272.503 L 411.727 269.852 C 411.727 265.419 414.169 261.531 417.773 259.461 L 417.773 216.253 C 414.169 214.187 411.727 210.297 411.727 205.865 L 411.727 203.212 L 411.594 203.132 L 411.507 203.081 L 411.453 203.047 L 411.314 202.96 L 411.294 202.947 L 411.177 202.871 L 411.15 202.855 L 411.039 202.78 L 410.901 202.691 L 410.867 202.668 L 410.769 202.599 L 410.659 202.521 L 410.633 202.503 L 410.499 202.408 L 410.451 202.375 L 410.367 202.312 L 410.247 202.224 L 410.235 202.215 L 410.105 202.115 L 410.049 202.069 L 409.977 202.015 L 409.849 201.913 C 406.225 199.003 403.902 194.533 403.902 189.523 C 403.902 184.467 406.265 179.963 409.947 177.055 L 409.947 177.055 C 410.113 176.923 410.281 176.796 410.451 176.671 L 410.459 176.665 L 410.594 176.569 L 410.659 176.523 L 410.857 176.384 L 410.867 176.379 C 410.999 176.289 411.13 176.203 411.266 176.117 L 411.294 176.1 L 411.478 175.984 L 411.507 175.964 L 411.541 175.945 L 411.727 175.833 L 411.727 173.18 C 411.727 168.748 414.169 164.86 417.773 162.791 L 417.773 102.973 L 417.773 102.973 Z  M 329.635 102.973 L 341.606 102.973 L 341.606 162.791 C 345.209 164.86 347.65 168.748 347.65 173.18 L 347.65 175.835 L 347.698 175.863 L 347.837 175.945 L 347.869 175.964 L 347.899 175.984 L 348.083 176.1 L 348.111 176.117 L 348.25 176.205 L 348.298 176.237 L 348.313 176.247 L 348.509 176.379 L 348.518 176.384 L 348.718 176.523 L 348.783 176.569 L 348.918 176.665 L 348.925 176.671 C 349.097 176.796 349.265 176.923 349.43 177.055 L 349.43 177.055 C 353.113 179.963 355.477 184.467 355.477 189.523 C 355.477 194.533 353.153 199.003 349.529 201.913 L 349.401 202.015 L 349.33 202.069 L 349.27 202.115 L 349.139 202.215 L 349.127 202.224 L 349.01 202.312 L 348.925 202.375 L 348.877 202.408 L 348.743 202.503 L 348.718 202.521 L 348.609 202.599 L 348.509 202.668 L 348.477 202.691 L 348.338 202.78 L 348.225 202.855 L 348.202 202.871 L 348.083 202.947 L 348.063 202.96 L 347.923 203.047 L 347.869 203.081 L 347.785 203.132 L 347.65 203.212 L 347.65 205.865 C 347.65 210.297 345.209 214.185 341.606 216.253 L 341.606 259.461 C 345.209 261.531 347.65 265.419 347.65 269.852 L 347.65 272.503 L 347.698 272.532 L 347.837 272.616 L 347.869 272.635 L 347.975 272.701 L 348.083 272.771 L 348.111 272.788 L 348.25 272.876 L 348.298 272.907 L 348.313 272.917 L 348.509 273.049 L 348.518 273.056 L 348.651 273.148 L 348.718 273.193 L 348.783 273.24 L 348.918 273.335 L 348.925 273.341 L 349.046 273.431 L 349.127 273.492 L 349.135 273.499 L 349.43 273.724 L 349.43 273.724 C 353.11 276.632 355.477 281.136 355.477 286.192 C 355.477 291.205 353.153 295.673 349.529 298.584 L 349.401 298.685 L 349.33 298.74 L 349.27 298.785 L 349.141 298.885 L 349.127 298.893 L 349.01 298.984 L 348.925 299.045 L 348.877 299.079 L 348.743 299.173 L 348.718 299.192 L 348.609 299.269 L 348.509 299.336 L 348.477 299.36 L 348.338 299.451 L 348.225 299.525 L 348.202 299.541 L 348.083 299.616 L 348.063 299.631 L 347.923 299.719 L 347.869 299.751 L 347.785 299.803 L 347.65 299.883 L 347.65 302.536 C 347.65 306.967 345.209 310.856 341.606 312.925 L 341.606 356.132 C 345.209 358.201 347.65 362.091 347.65 366.523 L 347.65 369.176 L 347.698 369.204 L 347.837 369.288 L 347.869 369.307 L 347.975 369.372 L 348.083 369.441 L 348.111 369.46 L 348.25 369.547 L 348.298 369.58 L 348.313 369.588 L 348.509 369.72 L 348.519 369.727 L 348.651 369.82 L 348.718 369.864 L 348.783 369.911 L 348.918 370.005 L 348.925 370.012 L 349.046 370.103 L 349.127 370.164 L 349.135 370.168 L 349.43 370.396 L 349.43 370.396 C 353.11 373.304 355.477 377.807 355.477 382.864 C 355.477 387.877 353.153 392.344 349.529 395.255 L 349.401 395.357 L 349.33 395.412 L 349.27 395.457 L 349.141 395.556 L 349.127 395.565 L 349.01 395.653 L 348.925 395.716 L 348.877 395.751 L 348.743 395.847 L 348.718 395.864 L 348.609 395.941 L 348.509 396.009 L 348.477 396.032 L 348.338 396.123 L 348.225 396.196 L 348.202 396.212 L 348.083 396.289 L 348.063 396.301 L 347.923 396.388 L 347.869 396.421 L 347.785 396.473 L 347.65 396.552 L 347.65 399.205 C 347.65 403.639 345.209 407.528 341.606 409.596 L 341.606 452.804 C 345.209 454.871 347.65 458.759 347.65 463.193 L 347.65 465.847 L 347.698 465.875 L 347.837 465.957 L 347.869 465.977 L 347.975 466.043 L 348.083 466.111 L 348.111 466.129 L 348.25 466.216 L 348.298 466.249 L 348.313 466.259 L 348.509 466.391 L 348.519 466.397 L 348.651 466.489 L 348.718 466.536 L 348.783 466.583 L 348.918 466.676 L 348.925 466.683 L 349.046 466.773 L 349.127 466.833 L 349.135 466.84 L 349.43 467.067 L 349.43 467.067 C 353.11 469.975 355.477 474.477 355.477 479.536 C 355.477 484.547 353.153 489.016 349.529 491.927 L 349.529 491.927 C 349.265 492.139 348.994 492.34 348.718 492.533 L 348.609 492.611 L 348.509 492.68 L 348.338 492.795 L 348.298 492.821 L 348.282 492.829 L 348.083 492.959 L 348.063 492.973 L 347.923 493.057 L 347.869 493.092 L 347.785 493.144 L 347.65 493.224 L 347.65 495.877 C 347.65 500.308 345.209 504.199 341.606 506.265 L 341.606 550.305 L 329.637 550.305 L 329.637 506.196 C 326.097 504.109 323.711 500.26 323.711 495.877 L 323.711 479.536 L 323.711 463.193 C 323.711 458.809 326.097 454.961 329.637 452.875 L 329.635 409.524 C 326.097 407.44 323.711 403.588 323.711 399.205 L 323.711 382.864 L 323.711 366.523 C 323.711 362.14 326.097 358.289 329.635 356.204 L 329.635 312.853 C 326.097 310.768 323.711 306.917 323.711 302.536 L 323.711 286.193 L 323.711 286.192 L 323.711 269.852 C 323.711 265.469 326.097 261.619 329.635 259.533 L 329.635 216.183 C 326.097 214.097 323.711 210.248 323.711 205.865 L 323.711 189.523 L 323.711 173.18 C 323.711 168.799 326.097 164.947 329.635 162.861 L 329.635 102.973 L 329.635 102.973 Z  M 209.414 102.973 L 221.383 102.973 L 221.383 208.949 C 224.478 211.119 226.509 214.711 226.509 218.755 L 226.509 235.096 L 226.509 251.439 C 226.509 255.483 224.478 259.073 221.383 261.243 L 221.383 305.62 C 224.478 307.791 226.509 311.383 226.509 315.425 L 226.509 331.768 L 226.509 331.768 L 226.509 348.109 C 226.509 352.153 224.478 355.745 221.383 357.913 L 221.383 402.293 C 224.478 404.463 226.509 408.052 226.509 412.096 L 226.509 428.439 L 226.509 444.781 C 226.509 448.823 224.478 452.416 221.383 454.584 L 221.383 550.305 L 209.414 550.305 L 209.414 455.587 C 205.378 453.66 202.573 449.532 202.573 444.781 L 202.573 442.127 L 202.438 442.047 L 202.354 441.997 L 202.297 441.963 L 202.159 441.875 L 202.138 441.863 L 202.019 441.787 L 201.993 441.771 L 201.883 441.697 L 201.747 441.604 L 201.71 441.583 L 201.611 441.513 L 201.503 441.439 L 201.477 441.417 L 201.342 441.325 L 201.295 441.291 L 201.213 441.228 L 201.09 441.14 L 201.079 441.132 L 200.95 441.029 L 200.891 440.985 L 200.819 440.931 L 200.693 440.828 C 197.067 437.917 194.745 433.449 194.745 428.439 C 194.745 423.381 197.11 418.877 200.791 415.972 L 200.79 415.972 C 200.955 415.84 201.123 415.712 201.295 415.585 L 201.306 415.581 L 201.437 415.485 L 201.503 415.439 L 201.702 415.301 L 201.71 415.293 C 201.843 415.204 201.975 415.119 202.109 415.033 L 202.138 415.015 L 202.321 414.901 L 202.354 414.88 L 202.383 414.861 L 202.573 414.749 L 202.573 412.096 C 202.573 407.343 205.378 403.216 209.414 401.288 L 209.414 358.917 C 205.378 356.989 202.573 352.863 202.573 348.109 L 202.573 345.457 L 202.438 345.376 L 202.434 345.375 L 202.297 345.291 L 202.159 345.204 L 202.046 345.135 L 201.993 345.099 L 201.883 345.027 L 201.747 344.936 L 201.71 344.912 L 201.611 344.843 L 201.503 344.768 L 201.477 344.751 L 201.342 344.655 L 201.335 344.648 L 201.213 344.557 L 201.09 344.469 L 201.079 344.46 L 200.95 344.36 L 200.89 344.315 L 200.819 344.26 L 200.693 344.159 C 197.067 341.249 194.745 336.779 194.745 331.768 C 194.745 326.711 197.11 322.208 200.791 319.299 L 200.79 319.299 C 201.354 318.853 201.949 318.445 202.573 318.077 L 202.573 315.425 C 202.573 310.672 205.378 306.545 209.414 304.616 L 209.414 262.247 C 205.378 260.319 202.573 256.191 202.573 251.439 L 202.573 248.784 L 202.438 248.705 L 202.354 248.653 L 202.297 248.62 L 202.159 248.533 L 202.138 248.519 L 201.937 248.389 L 201.923 248.381 L 201.883 248.355 L 201.747 248.264 L 201.71 248.24 L 201.611 248.171 L 201.503 248.096 C 201.225 247.9 200.955 247.699 200.693 247.488 L 200.695 247.488 C 197.067 244.576 194.745 240.109 194.745 235.096 C 194.745 230.04 197.11 225.536 200.791 222.628 L 200.79 222.628 C 201.354 222.183 201.949 221.773 202.573 221.407 L 202.573 218.755 C 202.573 214.001 205.378 209.875 209.414 207.945 L 209.414 102.973 L 209.414 102.973 Z  M 90.525 102.973 L 102.493 102.973 L 102.493 307.796 C 106.097 309.865 108.538 313.755 108.538 318.187 L 108.538 320.839 C 109.161 321.207 109.757 321.613 110.321 322.059 L 110.317 322.059 C 114.001 324.968 116.365 329.472 116.365 334.528 C 116.365 339.541 114.042 344.009 110.415 346.92 L 110.418 346.92 C 110.153 347.132 109.885 347.333 109.607 347.529 L 109.499 347.604 L 109.398 347.673 L 109.227 347.788 L 109.186 347.813 L 109.173 347.823 L 108.973 347.952 L 108.951 347.967 L 108.813 348.053 L 108.757 348.085 L 108.671 348.139 L 108.538 348.217 L 108.538 350.871 C 108.538 355.304 106.097 359.193 102.493 361.261 L 102.493 550.305 L 90.525 550.305 L 90.525 361.191 C 86.987 359.104 84.601 355.253 84.601 350.871 L 84.601 334.528 L 84.601 318.187 C 84.601 313.804 86.987 309.953 90.525 307.867 L 90.525 102.973 L 90.525 102.973 Z " fill-rule="evenodd" fill="rgb(127,165,41)"/><path d=" M 66.218 112.179 L 671.233 112.179 C 688.759 112.179 703.097 126.517 703.097 144.041 L 703.097 509.236 C 703.097 526.761 688.759 541.099 671.233 541.099 L 66.219 541.099 C 48.694 541.099 34.357 526.761 34.357 509.236 L 34.357 144.041 C 34.357 126.517 48.694 112.179 66.218 112.179 Z " fill-rule="evenodd" fill="rgb(154,196,33)"/><path d=" M 202.109 415.033 C 201.975 415.119 201.843 415.204 201.71 415.293 L 202.109 415.033 Z  M 411.263 466.129 C 411.13 466.215 410.999 466.303 410.867 466.391 L 411.263 466.129 Z  M 411.263 369.46 C 411.13 369.544 410.999 369.632 410.867 369.72 L 411.263 369.46 Z  M 411.263 272.788 C 411.13 272.875 410.999 272.96 410.867 273.049 L 411.263 272.788 Z  M 411.266 176.117 C 411.13 176.203 410.999 176.289 410.867 176.379 L 411.266 176.117 Z  M 556.854 318.107 L 557.241 318.343 C 557.114 318.263 556.983 318.183 556.854 318.107 Z  M 656.882 112.179 L 668.851 112.179 L 668.853 307.867 C 672.389 309.953 674.777 313.804 674.777 318.187 L 674.777 334.528 L 674.777 350.871 C 674.777 355.253 672.389 359.104 668.853 361.191 L 668.853 541.099 L 656.882 541.099 L 656.882 361.261 C 653.279 359.193 650.838 355.304 650.838 350.871 L 650.838 348.217 L 650.703 348.139 L 650.618 348.085 L 650.563 348.053 L 650.425 347.967 L 650.405 347.952 L 650.205 347.823 L 650.19 347.813 L 650.15 347.788 L 649.978 347.673 L 649.879 347.604 L 649.77 347.529 C 649.493 347.333 649.223 347.132 648.959 346.92 L 648.959 346.92 C 645.335 344.009 643.011 339.541 643.011 334.528 C 643.011 329.472 645.378 324.968 649.059 322.059 L 649.058 322.059 C 649.621 321.613 650.217 321.207 650.838 320.839 L 650.838 318.187 C 650.838 313.755 653.279 309.865 656.882 307.796 L 656.882 112.179 L 656.882 112.179 Z  M 537.991 112.179 L 549.961 112.179 L 549.961 207.945 C 554.001 209.875 556.806 214.001 556.806 218.755 L 556.806 221.407 C 556.951 221.493 557.097 221.583 557.241 221.673 L 557.269 221.691 C 557.542 221.864 557.809 222.047 558.071 222.237 L 558.079 222.244 C 558.251 222.369 558.419 222.497 558.587 222.628 L 558.583 222.628 C 562.266 225.535 564.63 230.04 564.63 235.096 C 564.63 240.108 562.31 244.577 558.682 247.488 L 558.555 247.588 L 558.487 247.643 L 558.426 247.689 L 558.297 247.788 L 558.285 247.796 L 558.166 247.887 L 558.079 247.948 L 558.034 247.983 L 557.899 248.077 L 557.874 248.096 L 557.765 248.171 L 557.666 248.24 L 557.629 248.264 L 557.494 248.355 L 557.453 248.381 L 557.355 248.445 L 557.241 248.519 L 557.218 248.533 L 557.078 248.62 L 557.023 248.653 L 556.939 248.705 L 556.806 248.784 L 556.806 251.439 C 556.806 256.191 554.001 260.319 549.961 262.247 L 549.961 304.616 C 553.998 306.545 556.806 310.672 556.806 315.425 L 556.806 318.079 L 556.854 318.107 C 556.983 318.183 557.114 318.263 557.241 318.343 L 557.269 318.361 L 557.403 318.449 L 557.453 318.483 C 557.663 318.619 557.87 318.76 558.071 318.908 L 558.079 318.915 C 558.251 319.04 558.419 319.168 558.587 319.299 L 558.583 319.299 C 562.266 322.207 564.63 326.711 564.63 331.768 C 564.63 336.779 562.31 341.248 558.682 344.159 L 558.682 344.159 L 558.499 344.304 L 558.487 344.313 L 558.426 344.36 L 558.297 344.46 L 558.285 344.468 L 558.166 344.557 L 558.079 344.619 L 558.075 344.623 L 557.899 344.751 L 557.874 344.767 L 557.765 344.843 L 557.666 344.912 L 557.629 344.936 L 557.494 345.027 L 557.453 345.053 L 557.425 345.072 L 557.241 345.191 L 557.218 345.204 L 557.078 345.291 L 557.023 345.325 L 556.939 345.376 L 556.806 345.457 L 556.806 348.109 C 556.806 352.863 553.998 356.989 549.961 358.917 L 549.961 401.288 C 553.998 403.216 556.806 407.343 556.806 412.096 L 556.806 414.749 L 556.854 414.777 L 556.991 414.861 L 557.023 414.88 L 557.131 414.947 L 557.241 415.015 L 557.269 415.033 L 557.403 415.119 L 557.453 415.151 L 557.467 415.164 L 557.666 415.293 L 557.675 415.301 L 557.874 415.439 L 557.941 415.485 L 558.071 415.581 L 558.079 415.585 L 558.202 415.676 L 558.285 415.739 L 558.293 415.743 L 558.587 415.972 L 558.586 415.972 C 562.266 418.877 564.63 423.381 564.63 428.439 C 564.63 433.449 562.31 437.917 558.682 440.828 L 558.682 440.828 L 558.499 440.973 L 558.487 440.985 L 558.426 441.029 L 558.297 441.132 L 558.285 441.14 C 558.157 441.235 558.03 441.327 557.899 441.417 L 557.874 441.439 L 557.666 441.583 L 557.629 441.604 L 557.494 441.697 L 557.453 441.721 L 557.425 441.743 C 557.311 441.816 557.194 441.892 557.078 441.963 L 557.023 441.997 L 556.939 442.047 L 556.806 442.127 L 556.806 442.127 L 556.806 444.781 C 556.806 449.532 553.998 453.66 549.961 455.587 L 549.962 541.099 L 537.991 541.099 L 537.991 454.584 C 534.898 452.415 532.867 448.823 532.867 444.781 L 532.867 428.439 L 532.867 412.096 C 532.867 408.055 534.898 404.463 537.991 402.293 L 537.991 357.913 C 534.898 355.744 532.867 352.152 532.867 348.109 L 532.867 331.768 L 532.867 331.768 L 532.867 315.425 C 532.867 311.383 534.898 307.791 537.991 305.621 L 537.991 261.241 C 534.898 259.073 532.867 255.483 532.867 251.439 L 532.867 235.096 L 532.867 218.755 C 532.867 214.711 534.898 211.119 537.991 208.951 L 537.991 112.179 L 537.991 112.179 Z  M 417.773 112.179 L 429.739 112.179 L 429.739 162.861 C 433.278 164.947 435.666 168.799 435.666 173.18 L 435.666 189.523 L 435.666 205.865 C 435.666 210.248 433.278 214.097 429.739 216.183 L 429.739 259.532 C 433.278 261.617 435.666 265.469 435.666 269.852 L 435.666 286.192 L 435.666 286.193 L 435.666 302.536 C 435.666 306.917 433.278 310.768 429.739 312.853 L 429.739 356.204 C 433.278 358.289 435.666 362.14 435.666 366.523 L 435.666 382.864 L 435.666 399.205 C 435.666 403.588 433.278 407.44 429.739 409.527 L 429.739 452.875 C 433.278 454.961 435.666 458.809 435.666 463.193 L 435.666 479.536 L 435.666 495.877 C 435.666 500.26 433.278 504.109 429.739 506.196 L 429.739 541.099 L 417.773 541.099 L 417.773 506.265 C 414.169 504.199 411.727 500.309 411.727 495.877 L 411.727 493.224 L 411.594 493.144 L 411.507 493.092 L 411.453 493.057 L 411.314 492.973 L 411.294 492.959 L 411.094 492.829 L 411.079 492.821 L 411.039 492.795 L 410.867 492.68 L 410.769 492.611 L 410.659 492.533 C 410.382 492.34 410.113 492.139 409.849 491.927 L 409.849 491.927 C 406.225 489.016 403.902 484.547 403.902 479.536 C 403.902 474.477 406.265 469.975 409.947 467.067 L 409.947 467.067 L 410.239 466.84 L 410.247 466.833 L 410.331 466.773 L 410.451 466.683 L 410.461 466.676 L 410.594 466.583 L 410.659 466.536 L 410.725 466.489 L 410.857 466.397 L 410.867 466.391 C 410.999 466.303 411.13 466.215 411.263 466.129 L 411.266 466.129 L 411.294 466.111 L 411.401 466.043 L 411.507 465.977 L 411.541 465.957 L 411.727 465.847 L 411.727 463.193 C 411.727 458.759 414.169 454.871 417.773 452.804 L 417.773 409.596 C 414.169 407.528 411.727 403.639 411.727 399.205 L 411.727 396.552 L 411.594 396.473 L 411.507 396.421 L 411.453 396.388 L 411.314 396.301 L 411.294 396.289 L 411.177 396.212 L 411.15 396.196 L 411.039 396.123 L 410.901 396.032 L 410.867 396.009 L 410.769 395.941 L 410.659 395.864 L 410.633 395.847 L 410.499 395.751 L 410.451 395.716 L 410.367 395.653 L 410.247 395.565 L 410.235 395.556 L 410.105 395.457 L 410.049 395.412 L 409.977 395.357 L 409.849 395.255 C 406.225 392.344 403.902 387.877 403.902 382.864 C 403.902 377.807 406.265 373.307 409.947 370.396 L 409.947 370.396 L 410.239 370.168 L 410.247 370.164 L 410.331 370.103 L 410.451 370.012 L 410.461 370.005 L 410.594 369.911 L 410.659 369.864 L 410.725 369.82 L 410.857 369.727 L 410.867 369.72 C 410.999 369.632 411.13 369.544 411.263 369.46 L 411.266 369.46 L 411.294 369.441 L 411.401 369.372 L 411.507 369.307 L 411.541 369.288 L 411.727 369.176 L 411.727 366.523 C 411.727 362.091 414.169 358.201 417.773 356.132 L 417.773 312.925 C 414.169 310.856 411.727 306.967 411.727 302.536 L 411.727 299.883 L 411.594 299.803 L 411.507 299.751 L 411.453 299.719 L 411.314 299.631 L 411.294 299.616 L 411.177 299.541 L 411.15 299.525 L 411.039 299.451 L 410.901 299.36 L 410.867 299.336 L 410.769 299.269 L 410.659 299.192 L 410.633 299.173 L 410.499 299.079 L 410.451 299.045 L 410.367 298.984 L 410.247 298.893 L 410.235 298.885 L 410.105 298.785 L 410.049 298.74 L 409.977 298.685 L 409.849 298.584 C 406.225 295.673 403.902 291.205 403.902 286.192 C 403.902 281.136 406.265 276.633 409.947 273.724 L 409.947 273.724 L 410.239 273.499 L 410.247 273.492 L 410.331 273.431 L 410.451 273.341 L 410.461 273.335 L 410.594 273.24 L 410.659 273.193 L 410.723 273.148 L 410.857 273.056 L 410.867 273.049 C 410.999 272.96 411.13 272.875 411.263 272.788 L 411.266 272.788 L 411.294 272.771 L 411.401 272.701 L 411.507 272.635 L 411.541 272.616 L 411.727 272.503 L 411.727 269.852 C 411.727 265.419 414.169 261.531 417.773 259.461 L 417.773 216.253 C 414.169 214.187 411.727 210.297 411.727 205.865 L 411.727 203.212 L 411.594 203.132 L 411.507 203.081 L 411.453 203.047 L 411.314 202.96 L 411.294 202.947 L 411.177 202.871 L 411.15 202.855 L 411.039 202.78 L 410.901 202.691 L 410.867 202.668 L 410.769 202.599 L 410.659 202.521 L 410.633 202.503 L 410.499 202.408 L 410.451 202.375 L 410.367 202.312 L 410.247 202.224 L 410.235 202.215 L 410.105 202.115 L 410.049 202.069 L 409.977 202.015 L 409.849 201.913 C 406.225 199.003 403.902 194.533 403.902 189.523 C 403.902 184.467 406.265 179.963 409.947 177.055 L 409.947 177.055 C 410.113 176.923 410.281 176.796 410.451 176.671 L 410.459 176.665 L 410.594 176.569 L 410.659 176.523 L 410.857 176.384 L 410.867 176.379 C 410.999 176.289 411.13 176.203 411.266 176.117 L 411.294 176.1 L 411.478 175.984 L 411.507 175.964 L 411.541 175.945 L 411.727 175.833 L 411.727 173.18 C 411.727 168.748 414.169 164.86 417.773 162.791 L 417.773 112.179 L 417.773 112.179 Z  M 329.635 112.179 L 341.606 112.179 L 341.606 162.791 C 345.209 164.86 347.65 168.748 347.65 173.18 L 347.65 175.835 L 347.698 175.863 L 347.837 175.945 L 347.869 175.964 L 347.899 175.984 L 348.083 176.1 L 348.111 176.117 L 348.25 176.205 L 348.298 176.237 L 348.313 176.247 L 348.509 176.379 L 348.518 176.384 L 348.718 176.523 L 348.783 176.569 L 348.918 176.665 L 348.925 176.671 C 349.097 176.796 349.265 176.923 349.43 177.055 L 349.43 177.055 C 353.113 179.963 355.477 184.467 355.477 189.523 C 355.477 194.533 353.153 199.003 349.529 201.913 L 349.401 202.015 L 349.33 202.069 L 349.27 202.115 L 349.139 202.215 L 349.127 202.224 L 349.01 202.312 L 348.925 202.375 L 348.877 202.408 L 348.743 202.503 L 348.718 202.521 L 348.609 202.599 L 348.509 202.668 L 348.477 202.691 L 348.338 202.78 L 348.225 202.855 L 348.202 202.871 L 348.083 202.947 L 348.063 202.96 L 347.923 203.047 L 347.869 203.081 L 347.785 203.132 L 347.65 203.212 L 347.65 205.865 C 347.65 210.297 345.209 214.185 341.606 216.253 L 341.606 259.461 C 345.209 261.531 347.65 265.419 347.65 269.852 L 347.65 272.503 L 347.698 272.532 L 347.837 272.616 L 347.869 272.635 L 347.975 272.701 L 348.083 272.771 L 348.111 272.788 L 348.25 272.876 L 348.298 272.907 L 348.313 272.917 L 348.509 273.049 L 348.518 273.056 L 348.651 273.148 L 348.718 273.193 L 348.783 273.24 L 348.918 273.335 L 348.925 273.341 L 349.046 273.431 L 349.127 273.492 L 349.135 273.499 L 349.43 273.724 L 349.43 273.724 C 353.11 276.632 355.477 281.136 355.477 286.192 C 355.477 291.205 353.153 295.673 349.529 298.584 L 349.401 298.685 L 349.33 298.74 L 349.27 298.785 L 349.141 298.885 L 349.127 298.893 L 349.01 298.984 L 348.925 299.045 L 348.877 299.079 L 348.743 299.173 L 348.718 299.192 L 348.609 299.269 L 348.509 299.336 L 348.477 299.36 L 348.338 299.451 L 348.225 299.525 L 348.202 299.541 L 348.083 299.616 L 348.063 299.631 L 347.923 299.719 L 347.869 299.751 L 347.785 299.803 L 347.65 299.883 L 347.65 302.536 C 347.65 306.967 345.209 310.856 341.606 312.925 L 341.606 356.132 C 345.209 358.201 347.65 362.091 347.65 366.523 L 347.65 369.176 L 347.698 369.204 L 347.837 369.288 L 347.869 369.307 L 347.975 369.372 L 348.083 369.441 L 348.111 369.46 L 348.25 369.547 L 348.298 369.58 L 348.313 369.588 L 348.509 369.72 L 348.519 369.727 L 348.651 369.82 L 348.718 369.864 L 348.783 369.911 L 348.918 370.005 L 348.925 370.012 L 349.046 370.103 L 349.127 370.164 L 349.135 370.168 L 349.43 370.396 L 349.43 370.396 C 353.11 373.304 355.477 377.807 355.477 382.864 C 355.477 387.877 353.153 392.344 349.529 395.255 L 349.401 395.357 L 349.33 395.412 L 349.27 395.457 L 349.141 395.556 L 349.127 395.565 L 349.01 395.653 L 348.925 395.716 L 348.877 395.751 L 348.743 395.847 L 348.718 395.864 L 348.609 395.941 L 348.509 396.009 L 348.477 396.032 L 348.338 396.123 L 348.225 396.196 L 348.202 396.212 L 348.083 396.289 L 348.063 396.301 L 347.923 396.388 L 347.869 396.421 L 347.785 396.473 L 347.65 396.552 L 347.65 399.205 C 347.65 403.639 345.209 407.528 341.606 409.596 L 341.606 452.804 C 345.209 454.871 347.65 458.759 347.65 463.193 L 347.65 465.847 L 347.698 465.875 L 347.837 465.957 L 347.869 465.977 L 347.975 466.043 L 348.083 466.111 L 348.111 466.129 L 348.25 466.216 L 348.298 466.249 L 348.313 466.259 L 348.509 466.391 L 348.519 466.397 L 348.651 466.489 L 348.718 466.536 L 348.783 466.583 L 348.918 466.676 L 348.925 466.683 L 349.046 466.773 L 349.127 466.833 L 349.135 466.84 L 349.43 467.067 L 349.43 467.067 C 353.11 469.975 355.477 474.477 355.477 479.536 C 355.477 484.547 353.153 489.016 349.529 491.927 L 349.529 491.927 C 349.265 492.139 348.994 492.34 348.718 492.533 L 348.609 492.611 L 348.509 492.68 L 348.338 492.795 L 348.298 492.821 L 348.282 492.829 L 348.083 492.959 L 348.063 492.973 L 347.923 493.057 L 347.869 493.092 L 347.785 493.144 L 347.65 493.224 L 347.65 495.877 C 347.65 500.308 345.209 504.199 341.606 506.265 L 341.606 541.099 L 329.637 541.099 L 329.637 506.196 C 326.097 504.109 323.711 500.26 323.711 495.877 L 323.711 479.536 L 323.711 463.193 C 323.711 458.809 326.097 454.961 329.637 452.875 L 329.635 409.524 C 326.097 407.44 323.711 403.588 323.711 399.205 L 323.711 382.864 L 323.711 366.523 C 323.711 362.14 326.097 358.289 329.635 356.204 L 329.635 312.853 C 326.097 310.768 323.711 306.917 323.711 302.536 L 323.711 286.193 L 323.711 286.192 L 323.711 269.852 C 323.711 265.469 326.097 261.619 329.635 259.533 L 329.635 216.183 C 326.097 214.097 323.711 210.248 323.711 205.865 L 323.711 189.523 L 323.711 173.18 C 323.711 168.799 326.097 164.947 329.635 162.861 L 329.635 112.179 L 329.635 112.179 Z  M 209.414 112.179 L 221.383 112.179 L 221.383 208.949 C 224.478 211.119 226.509 214.711 226.509 218.755 L 226.509 235.096 L 226.509 251.439 C 226.509 255.483 224.478 259.073 221.383 261.243 L 221.383 305.62 C 224.478 307.791 226.509 311.383 226.509 315.425 L 226.509 331.768 L 226.509 331.768 L 226.509 348.109 C 226.509 352.153 224.478 355.745 221.383 357.913 L 221.383 402.293 C 224.478 404.463 226.509 408.052 226.509 412.096 L 226.509 428.439 L 226.509 444.781 C 226.509 448.823 224.478 452.416 221.383 454.584 L 221.383 541.099 L 209.414 541.099 L 209.414 455.587 C 205.378 453.66 202.573 449.532 202.573 444.781 L 202.573 442.127 L 202.438 442.047 L 202.354 441.997 L 202.297 441.963 L 202.159 441.875 L 202.138 441.863 L 202.019 441.787 L 201.993 441.771 L 201.883 441.697 L 201.747 441.604 L 201.71 441.583 L 201.611 441.513 L 201.503 441.439 L 201.477 441.417 L 201.342 441.325 L 201.295 441.291 L 201.213 441.228 L 201.09 441.14 L 201.079 441.132 L 200.95 441.029 L 200.891 440.985 L 200.819 440.931 L 200.693 440.828 C 197.067 437.917 194.745 433.449 194.745 428.439 C 194.745 423.381 197.11 418.877 200.791 415.972 L 200.79 415.972 C 200.955 415.84 201.123 415.712 201.295 415.585 L 201.306 415.581 L 201.437 415.485 L 201.503 415.439 L 201.702 415.301 L 201.71 415.293 C 201.843 415.204 201.975 415.119 202.109 415.033 L 202.138 415.015 L 202.321 414.901 L 202.354 414.88 L 202.383 414.861 L 202.573 414.749 L 202.573 412.096 C 202.573 407.343 205.378 403.216 209.414 401.288 L 209.414 358.917 C 205.378 356.989 202.573 352.863 202.573 348.109 L 202.573 345.457 L 202.438 345.376 L 202.434 345.375 L 202.297 345.291 L 202.159 345.204 L 202.046 345.135 L 201.993 345.099 L 201.883 345.027 L 201.747 344.936 L 201.71 344.912 L 201.611 344.843 L 201.503 344.768 L 201.477 344.751 L 201.342 344.655 L 201.335 344.648 L 201.213 344.557 L 201.09 344.469 L 201.079 344.46 L 200.95 344.36 L 200.89 344.315 L 200.819 344.26 L 200.693 344.159 C 197.067 341.249 194.745 336.779 194.745 331.768 C 194.745 326.711 197.11 322.208 200.791 319.299 L 200.79 319.299 C 201.354 318.853 201.949 318.445 202.573 318.077 L 202.573 315.425 C 202.573 310.672 205.378 306.545 209.414 304.616 L 209.414 262.247 C 205.378 260.319 202.573 256.191 202.573 251.439 L 202.573 248.784 L 202.438 248.705 L 202.354 248.653 L 202.297 248.62 L 202.159 248.533 L 202.138 248.519 L 201.937 248.389 L 201.923 248.381 L 201.883 248.355 L 201.747 248.264 L 201.71 248.24 L 201.611 248.171 L 201.503 248.096 C 201.225 247.9 200.955 247.699 200.693 247.488 L 200.695 247.488 C 197.067 244.576 194.745 240.109 194.745 235.096 C 194.745 230.04 197.11 225.536 200.791 222.628 L 200.79 222.628 C 201.354 222.183 201.949 221.773 202.573 221.407 L 202.573 218.755 C 202.573 214.001 205.378 209.875 209.414 207.945 L 209.414 112.179 L 209.414 112.179 Z  M 90.525 112.179 L 102.493 112.179 L 102.493 307.796 C 106.097 309.865 108.538 313.755 108.538 318.187 L 108.538 320.839 C 109.161 321.207 109.757 321.613 110.321 322.059 L 110.317 322.059 C 114.001 324.968 116.365 329.472 116.365 334.528 C 116.365 339.541 114.042 344.009 110.415 346.92 L 110.418 346.92 C 110.153 347.132 109.885 347.333 109.607 347.529 L 109.499 347.604 L 109.398 347.673 L 109.227 347.788 L 109.186 347.813 L 109.173 347.823 L 108.973 347.952 L 108.951 347.967 L 108.813 348.053 L 108.757 348.085 L 108.671 348.139 L 108.538 348.217 L 108.538 350.871 C 108.538 355.304 106.097 359.193 102.493 361.261 L 102.493 541.099 L 90.525 541.099 L 90.525 361.191 C 86.987 359.104 84.601 355.253 84.601 350.871 L 84.601 334.528 L 84.601 318.187 C 84.601 313.804 86.987 309.953 90.525 307.867 L 90.525 112.179 L 90.525 112.179 Z " fill-rule="evenodd" fill="rgb(140,181,38)"/><path d=" M 83.309 509.411 C 82.607 504.848 80.453 500.765 77.334 497.645 C 74.217 494.529 70.133 492.373 65.571 491.672 L 65.571 509.411 L 83.309 509.411 Z  M 671.881 491.672 C 667.319 492.373 663.235 494.529 660.118 497.645 C 656.999 500.765 654.845 504.848 654.143 509.411 L 671.881 509.411 L 671.881 491.672 L 671.881 491.672 Z  M 654.143 143.867 C 654.845 148.429 656.999 152.512 660.118 155.632 C 663.235 158.749 667.319 160.903 671.881 161.607 L 671.881 143.867 L 654.143 143.867 L 654.143 143.867 Z  M 65.571 161.607 C 70.133 160.903 74.217 158.749 77.334 155.632 C 80.453 152.512 82.607 148.429 83.309 143.867 L 65.571 143.867 L 65.571 161.607 Z  M 365.466 261.555 C 348.767 262.377 333.723 269.485 322.646 280.559 C 310.857 292.352 303.561 308.644 303.561 326.639 C 303.561 344.635 310.857 360.927 322.646 372.719 C 333.723 383.795 348.767 390.9 365.466 391.723 L 365.466 261.555 L 365.466 261.555 Z  M 414.803 280.559 C 403.729 269.485 388.685 262.377 371.987 261.555 L 371.987 391.723 C 388.685 390.9 403.729 383.795 414.803 372.719 C 426.597 360.927 433.891 344.635 433.891 326.639 C 433.891 308.644 426.597 292.352 414.803 280.559 L 414.803 280.559 Z  M 180.15 298.145 C 176.825 291.317 172.349 285.159 166.978 279.928 L 166.978 373.351 C 172.349 368.12 176.825 361.963 180.15 355.133 C 184.339 346.531 186.69 336.861 186.69 326.639 C 186.69 316.416 184.339 306.747 180.15 298.145 L 180.15 298.145 Z  M 166.978 271.213 C 174.941 277.752 181.467 285.959 186.013 295.291 C 190.625 304.765 193.215 315.403 193.215 326.639 C 193.215 337.875 190.625 348.513 186.013 357.987 C 181.467 367.319 174.941 375.527 166.978 382.063 L 166.978 419.436 L 65.571 419.436 L 65.571 485.087 C 71.937 485.832 77.646 488.731 81.947 493.033 C 86.251 497.335 89.147 503.043 89.893 509.411 L 365.466 509.411 L 365.466 398.255 C 346.967 397.425 330.291 389.588 318.034 377.331 C 305.062 364.359 297.038 346.436 297.038 326.639 C 297.038 306.843 305.062 288.92 318.034 275.947 C 330.291 263.691 346.967 255.852 365.466 255.023 L 365.466 143.867 L 89.893 143.867 C 89.147 150.233 86.25 155.943 81.947 160.245 C 77.646 164.547 71.937 167.445 65.571 168.191 L 65.571 233.84 L 166.978 233.84 L 166.978 271.213 L 166.978 271.213 Z  M 109.126 285.684 L 65.571 285.684 L 65.571 367.593 L 109.126 367.593 L 109.126 285.684 Z  M 65.571 279.16 L 115.65 279.16 L 115.65 374.119 L 65.571 374.119 L 65.571 412.915 L 160.454 412.915 L 160.454 387.205 L 160.454 266.075 L 160.454 240.365 L 65.571 240.365 L 65.571 279.16 L 65.571 279.16 Z  M 551.441 295.291 C 555.985 285.959 562.51 277.752 570.475 271.213 L 570.475 233.84 L 573.735 233.84 L 671.881 233.84 L 671.881 168.191 C 665.515 167.445 659.807 164.547 655.505 160.245 C 651.202 155.943 648.305 150.233 647.558 143.867 L 371.987 143.867 L 371.987 255.023 C 390.486 255.852 407.161 263.691 419.418 275.947 C 432.39 288.92 440.415 306.843 440.415 326.639 C 440.415 346.436 432.39 364.359 419.418 377.331 C 407.161 389.588 390.486 397.425 371.987 398.255 L 371.987 509.411 L 647.559 509.411 C 648.305 503.043 651.202 497.335 655.505 493.033 C 659.807 488.731 665.517 485.832 671.881 485.087 L 671.881 419.436 L 570.475 419.436 L 570.475 382.063 C 562.51 375.527 555.985 367.319 551.441 357.987 C 546.826 348.513 544.237 337.875 544.237 326.639 C 544.237 315.403 546.826 304.765 551.441 295.291 L 551.441 295.291 Z  M 570.475 279.928 C 565.105 285.159 560.626 291.317 557.301 298.145 C 553.114 306.747 550.761 316.416 550.761 326.639 C 550.761 336.861 553.114 346.531 557.301 355.133 C 560.626 361.963 565.105 368.12 570.475 373.351 L 570.475 279.928 Z  M 625.063 279.16 L 671.881 279.16 L 671.881 240.365 L 576.999 240.365 L 576.999 266.075 L 576.999 387.205 L 576.999 412.915 L 671.881 412.915 L 671.881 374.119 L 621.801 374.119 L 621.801 279.16 L 625.063 279.16 L 625.063 279.16 Z  M 671.881 285.684 L 628.326 285.684 L 628.326 367.593 L 671.881 367.593 L 671.881 285.684 Z  M 62.309 137.343 L 678.406 137.343 L 678.407 233.84 L 678.407 515.933 L 59.046 515.933 L 59.046 419.436 L 59.046 374.119 L 59.046 279.16 L 59.046 233.84 L 59.046 137.343 L 62.309 137.343 L 62.309 137.343 Z " fill-rule="evenodd" fill="rgb(250,252,233)"/><path d=" M 353.749 390.075 C 352.721 392.087 351.275 393.853 349.529 395.255 L 349.401 395.357 L 349.33 395.412 L 349.27 395.457 L 349.141 395.556 L 349.127 395.565 L 349.081 395.601 C 339.698 392.935 331.099 388.404 323.711 382.435 L 323.711 373.759 C 331.957 381.639 342.267 387.371 353.749 390.075 L 353.749 390.075 Z  M 342.378 259.947 C 344.305 261.256 345.83 263.108 346.737 265.279 C 338.062 268.387 330.241 273.28 323.711 279.52 L 323.711 270.843 C 329.302 266.327 335.587 262.632 342.378 259.947 Z  M 671.881 310.405 C 673.683 312.501 674.777 315.223 674.777 318.187 L 674.777 334.528 L 674.777 350.871 C 674.777 353.836 673.683 356.557 671.881 358.652 L 671.881 310.405 Z  M 656.882 161.532 L 656.882 151.479 C 657.787 152.996 658.877 154.389 660.118 155.632 C 662.526 158.041 665.514 159.875 668.851 160.908 L 668.851 167.664 C 664.341 166.619 660.253 164.476 656.882 161.532 Z  M 656.882 240.365 L 656.882 233.84 L 668.851 233.84 L 668.851 240.365 L 656.882 240.365 Z  M 656.882 285.684 L 656.882 279.16 L 668.853 279.16 L 668.853 285.684 L 656.882 285.684 Z  M 656.882 374.119 L 656.882 367.593 L 668.853 367.593 L 668.853 374.119 L 656.882 374.119 Z  M 656.882 419.436 L 656.882 412.915 L 668.853 412.915 L 668.853 419.436 L 656.882 419.436 Z  M 656.882 501.8 L 656.882 491.745 C 660.253 488.803 664.341 486.659 668.853 485.613 L 668.853 492.369 C 665.514 493.404 662.526 495.237 660.118 497.645 C 658.877 498.888 657.787 500.283 656.882 501.8 L 656.882 501.8 Z  M 411.263 272.788 L 410.867 273.049 C 410.999 272.96 411.13 272.875 411.263 272.788 Z  M 403.962 381.464 C 403.922 381.925 403.902 382.393 403.902 382.864 C 403.902 384.86 404.269 386.764 404.938 388.521 C 410.238 385.413 415.102 381.645 419.418 377.331 C 424.814 371.936 429.353 365.681 432.815 358.795 C 431.946 357.768 430.905 356.891 429.739 356.204 L 429.739 349.572 C 426.443 358.341 421.307 366.215 414.803 372.719 C 411.521 376.003 407.886 378.94 403.962 381.464 L 403.962 381.464 Z  M 411.741 269.284 C 411.73 269.472 411.727 269.663 411.727 269.852 L 411.727 272.503 L 411.541 272.616 L 411.507 272.635 L 411.401 272.701 L 411.294 272.771 L 411.266 272.788 L 411.263 272.788 C 411.13 272.875 410.999 272.96 410.867 273.049 L 410.857 273.056 L 410.723 273.148 L 410.659 273.193 L 410.594 273.24 L 410.461 273.335 L 410.451 273.341 L 410.331 273.431 L 410.247 273.492 L 410.239 273.499 L 409.947 273.724 L 409.947 273.724 C 409.439 274.127 408.955 274.557 408.503 275.017 C 410.719 276.728 412.826 278.581 414.803 280.559 C 423.089 288.843 429.153 299.349 432.027 311.107 C 434.267 308.928 435.666 305.888 435.666 302.536 L 435.666 300.925 C 432.03 291.471 426.451 282.981 419.418 275.947 C 417.021 273.551 414.455 271.324 411.741 269.284 L 411.741 269.284 Z  M 549.961 298.531 L 549.961 304.616 C 551.366 305.287 552.619 306.223 553.661 307.36 C 551.777 313.449 550.761 319.925 550.761 326.639 C 550.761 335.772 552.638 344.465 556.026 352.347 C 555.133 354.685 553.525 356.679 551.473 358.056 L 551.441 357.987 C 546.826 348.513 544.237 337.875 544.237 326.639 C 544.237 316.667 546.278 307.165 549.961 298.531 L 549.961 298.531 Z  M 102.493 412.915 L 102.493 419.436 L 90.525 419.436 L 90.525 412.915 L 102.493 412.915 Z  M 102.493 367.593 L 102.493 374.119 L 90.525 374.119 L 90.525 367.593 L 102.493 367.593 Z  M 109.126 321.203 C 109.538 321.471 109.935 321.757 110.321 322.059 L 110.317 322.059 C 112.803 324.023 114.687 326.712 115.65 329.807 L 115.65 339.251 C 114.701 342.307 112.853 344.965 110.415 346.92 L 110.418 346.92 C 110.153 347.132 109.885 347.333 109.607 347.529 L 109.499 347.604 L 109.398 347.673 L 109.227 347.788 L 109.186 347.813 L 109.173 347.823 L 109.126 347.853 L 109.126 321.203 L 109.126 321.203 Z  M 102.493 279.16 L 102.493 285.684 L 90.525 285.684 L 90.525 279.16 L 102.493 279.16 Z  M 102.493 233.84 L 102.493 240.365 L 90.525 240.365 L 90.525 233.84 L 102.493 233.84 Z  M 102.493 515.933 L 90.525 515.933 L 90.525 509.411 L 102.493 509.411 L 102.493 515.933 Z  M 221.383 515.933 L 209.414 515.933 L 209.414 509.411 L 221.383 509.411 L 221.383 515.933 Z  M 341.606 515.933 L 329.637 515.933 L 329.637 509.411 L 341.606 509.411 L 341.606 515.933 Z  M 429.739 515.933 L 417.773 515.933 L 417.773 509.411 L 429.739 509.411 L 429.739 515.933 Z  M 549.962 515.933 L 537.991 515.933 L 537.991 509.411 L 549.962 509.411 L 549.962 515.933 Z  M 668.853 515.933 L 656.882 515.933 L 656.882 509.411 L 668.853 509.411 L 668.853 515.933 Z  M 656.882 137.343 L 668.851 137.343 L 668.851 143.867 L 656.882 143.867 L 656.882 137.343 Z  M 537.991 137.343 L 549.961 137.343 L 549.961 143.867 L 537.991 143.867 L 537.991 137.343 Z  M 417.773 137.343 L 429.739 137.343 L 429.739 143.867 L 417.773 143.867 L 417.773 137.343 Z  M 329.635 137.343 L 341.606 137.343 L 341.606 143.867 L 329.635 143.867 L 329.635 137.343 Z  M 209.414 137.343 L 221.383 137.343 L 221.383 143.867 L 209.414 143.867 L 209.414 137.343 Z  M 90.525 137.343 L 102.493 137.343 L 102.493 143.867 L 90.525 143.867 L 90.525 137.343 L 90.525 137.343 Z " fill-rule="evenodd" fill="rgb(223,234,186)"/><path d=" M 80.05 625.168 L 92.019 625.168 L 92.019 79.208 L 80.05 79.208 L 80.05 625.168 Z " fill-rule="evenodd" fill="rgb(226,241,152)"/><path d=" M 86.095 298.328 L 86.097 298.328 C 92.679 298.328 98.065 303.713 98.065 310.296 L 98.065 342.981 C 98.065 349.565 92.679 354.951 86.097 354.951 L 86.095 354.951 C 79.513 354.951 74.126 349.565 74.126 342.981 L 74.126 310.296 C 74.126 303.713 79.513 298.328 86.095 298.328 Z " fill-rule="evenodd" fill="rgb(204,45,35)"/><path d=" M 90.009 342.521 C 98.757 342.521 105.891 335.385 105.891 326.639 C 105.891 317.891 98.757 310.757 90.009 310.757 C 81.262 310.757 74.127 317.891 74.127 326.639 C 74.127 335.385 81.262 342.521 90.009 342.521 Z " fill-rule="evenodd" fill="rgb(251,198,137)"/><path d=" M 90.009 310.757 C 93.725 310.757 97.142 312.033 99.846 314.169 C 96.831 313.792 95.957 316.221 97.375 317.491 C 98.065 318.108 102.369 316.908 102.439 326.985 C 102.51 337.061 96.187 334.429 96.513 336.997 C 96.757 338.931 98.001 339.297 99.943 339.029 C 97.223 341.213 93.769 342.521 90.009 342.521 C 81.238 342.521 74.126 335.409 74.126 326.639 C 74.126 317.867 81.238 310.757 90.009 310.757 Z " fill-rule="evenodd" fill="rgb(47,45,45)"/><path d=" M 92.019 593.664 L 80.051 593.664 C 76.47 593.664 73.542 596.593 73.542 600.173 L 73.542 640.785 C 73.542 647.656 79.165 653.279 86.035 653.279 L 86.035 653.279 C 92.907 653.279 98.529 647.656 98.529 640.785 L 98.529 600.173 C 98.529 596.593 95.599 593.664 92.019 593.664 Z " fill-rule="evenodd" fill="rgb(151,26,31)"/><path d=" M 82.609 603.792 L 82.609 603.792 C 79.317 603.792 76.623 606.484 76.623 609.776 L 76.623 641.293 C 76.623 644.584 79.317 647.276 82.609 647.276 L 82.609 647.276 C 85.901 647.276 88.593 644.584 88.593 641.293 L 88.593 609.776 C 88.593 606.484 85.901 603.792 82.609 603.792 Z " fill-rule="evenodd" fill="rgb(204,45,35)"/><path d=" M 80.05 593.664 L 92.019 593.664 L 92.019 589.06 L 80.05 589.06 L 80.05 593.664 Z " fill-rule="evenodd" fill="rgb(203,223,131)"/><path d=" M 319.162 625.619 L 331.131 625.619 L 331.131 79.66 L 319.162 79.66 L 319.162 625.619 Z " fill-rule="evenodd" fill="rgb(226,241,152)"/><path d=" M 331.131 593.664 L 319.162 593.664 C 315.582 593.664 312.651 596.593 312.651 600.173 L 312.651 640.785 C 312.651 647.656 318.274 653.279 325.146 653.279 L 325.146 653.279 C 332.017 653.279 337.641 647.656 337.641 640.785 L 337.641 600.173 C 337.641 596.593 334.711 593.664 331.131 593.664 Z " fill-rule="evenodd" fill="rgb(151,26,31)"/><path d=" M 321.719 603.792 L 321.719 603.792 C 318.426 603.792 315.735 606.484 315.735 609.776 L 315.735 641.293 C 315.735 644.584 318.426 647.276 321.719 647.276 L 321.719 647.276 C 325.013 647.276 327.703 644.584 327.703 641.293 L 327.703 609.776 C 327.703 606.484 325.013 603.792 321.719 603.792 Z " fill-rule="evenodd" fill="rgb(204,45,35)"/><path d=" M 319.162 593.664 L 331.131 593.664 L 331.131 589.06 L 319.162 589.06 L 319.162 593.664 Z " fill-rule="evenodd" fill="rgb(203,223,131)"/><path d=" M 325.207 443.335 L 325.207 443.335 C 331.79 443.335 337.175 448.719 337.175 455.303 L 337.175 487.988 C 337.175 494.572 331.79 499.956 325.207 499.956 L 325.207 499.956 C 318.625 499.956 313.239 494.572 313.239 487.988 L 313.239 455.303 C 313.239 448.719 318.625 443.335 325.207 443.335 Z " fill-rule="evenodd" fill="rgb(204,45,35)"/><path d=" M 329.119 487.528 C 337.867 487.528 345.002 480.392 345.002 471.644 C 345.002 462.897 337.867 455.763 329.119 455.763 C 320.371 455.763 313.239 462.897 313.239 471.644 C 313.239 480.392 320.371 487.528 329.119 487.528 Z " fill-rule="evenodd" fill="rgb(251,198,137)"/><path d=" M 329.119 455.763 C 332.834 455.763 336.254 457.04 338.958 459.176 C 335.941 458.799 335.067 461.225 336.487 462.496 C 337.175 463.115 341.479 461.915 341.549 471.992 C 341.622 482.069 335.298 479.435 335.623 482.004 C 335.869 483.937 337.11 484.303 339.054 484.035 C 336.334 486.22 332.878 487.528 329.119 487.528 C 320.349 487.528 313.239 480.417 313.239 471.645 C 313.239 462.875 320.349 455.763 329.119 455.763 Z " fill-rule="evenodd" fill="rgb(47,45,45)"/><path d=" M 325.207 346.664 L 325.207 346.664 C 331.79 346.664 337.175 352.049 337.175 358.633 C 337.175 369.529 337.175 380.421 337.175 391.316 C 337.175 397.9 331.79 403.284 325.207 403.284 L 325.207 403.284 C 318.625 403.284 313.239 397.9 313.239 391.316 C 313.239 380.421 313.239 369.529 313.239 358.633 C 313.239 352.049 318.625 346.664 325.207 346.664 Z " fill-rule="evenodd" fill="rgb(204,45,35)"/><path d=" M 329.119 359.093 C 337.891 359.093 345.001 366.203 345.001 374.973 C 345.001 383.747 337.891 390.856 329.119 390.856 C 320.349 390.856 313.239 383.747 313.239 374.973 C 313.239 366.203 320.349 359.093 329.119 359.093 Z " fill-rule="evenodd" fill="rgb(251,198,137)"/><path d=" M 329.119 359.093 C 332.834 359.093 336.254 360.368 338.958 362.507 C 335.941 362.128 335.067 364.556 336.487 365.827 C 337.175 366.443 341.479 365.244 341.549 375.32 C 341.622 385.397 335.298 382.765 335.623 385.332 C 335.869 387.265 337.11 387.633 339.054 387.365 C 336.334 389.548 332.878 390.856 329.119 390.856 C 320.349 390.856 313.239 383.747 313.239 374.973 C 313.239 366.203 320.349 359.093 329.119 359.093 Z " fill-rule="evenodd" fill="rgb(47,45,45)"/><path d=" M 325.207 249.992 L 325.207 249.992 C 331.79 249.992 337.175 255.379 337.175 261.961 C 337.175 272.856 337.175 283.751 337.175 294.645 C 337.175 301.228 331.79 306.613 325.207 306.613 L 325.207 306.613 C 318.625 306.613 313.239 301.228 313.239 294.645 C 313.239 283.751 313.239 272.856 313.239 261.961 C 313.239 255.379 318.625 249.992 325.207 249.992 Z " fill-rule="evenodd" fill="rgb(204,45,35)"/><path d=" M 329.119 262.423 C 337.891 262.423 345.001 269.532 345.001 278.303 C 345.001 287.075 337.891 294.184 329.119 294.184 C 320.349 294.184 313.239 287.075 313.239 278.303 C 313.239 269.532 320.349 262.423 329.119 262.423 Z " fill-rule="evenodd" fill="rgb(251,198,137)"/><path d=" M 329.119 262.423 C 332.834 262.423 336.254 263.697 338.958 265.835 C 335.941 265.456 335.067 267.885 336.487 269.156 C 337.175 269.773 341.479 268.572 341.549 278.651 C 341.622 288.725 335.298 286.093 335.623 288.663 C 335.869 290.596 337.11 290.96 339.054 290.693 C 336.334 292.879 332.878 294.184 329.119 294.184 C 320.349 294.184 313.239 287.075 313.239 278.303 C 313.239 269.532 320.349 262.423 329.119 262.423 Z " fill-rule="evenodd" fill="rgb(47,45,45)"/><path d=" M 325.206 153.321 L 325.206 153.321 C 331.79 153.321 337.175 158.707 337.175 165.289 L 337.175 197.976 C 337.175 204.557 331.79 209.944 325.207 209.944 L 325.207 209.944 C 318.625 209.944 313.239 204.557 313.239 197.976 L 313.239 165.289 C 313.239 158.707 318.625 153.321 325.206 153.321 Z " fill-rule="evenodd" fill="rgb(204,45,35)"/><path d=" M 329.119 197.515 C 337.867 197.515 345.002 190.38 345.002 181.633 C 345.002 172.885 337.867 165.751 329.119 165.751 C 320.371 165.751 313.239 172.885 313.239 181.633 C 313.239 190.38 320.371 197.515 329.119 197.515 Z " fill-rule="evenodd" fill="rgb(251,198,137)"/><path d=" M 329.119 165.751 C 332.834 165.751 336.254 167.028 338.958 169.165 C 335.941 168.787 335.067 171.215 336.487 172.485 C 337.175 173.103 341.479 171.903 341.549 181.979 C 341.622 192.056 335.298 189.424 335.623 191.992 C 335.869 193.925 337.11 194.291 339.054 194.023 C 336.334 196.207 332.878 197.515 329.119 197.515 C 320.349 197.515 313.239 190.404 313.239 181.633 C 313.239 172.861 320.349 165.751 329.119 165.751 Z " fill-rule="evenodd" fill="rgb(47,45,45)"/><path d=" M 198.942 575.453 L 210.911 575.453 L 210.911 29.494 L 198.942 29.494 L 198.942 575.453 Z " fill-rule="evenodd" fill="rgb(226,241,152)"/><path d=" M 210.911 59.612 L 198.942 59.612 C 195.362 59.612 192.433 56.684 192.433 53.105 L 192.433 12.493 C 192.433 5.621 198.054 0 204.926 0 L 204.926 0 C 211.797 0 217.419 5.621 217.419 12.493 L 217.419 53.105 C 217.419 56.684 214.491 59.612 210.911 59.612 Z " fill-rule="evenodd" fill="rgb(151,26,31)"/><path d=" M 201.499 49.487 L 201.499 49.487 C 198.206 49.487 195.515 46.793 195.515 43.501 L 195.515 11.985 C 195.515 8.693 198.206 6.001 201.499 6.001 L 201.499 6.001 C 204.791 6.001 207.483 8.693 207.483 11.985 L 207.483 43.501 C 207.483 46.793 204.791 49.487 201.499 49.487 Z " fill-rule="evenodd" fill="rgb(204,45,35)"/><path d=" M 198.942 64.217 L 210.911 64.217 L 210.911 59.612 L 198.942 59.612 L 198.942 64.217 Z " fill-rule="evenodd" fill="rgb(203,223,131)"/><path d=" M 204.065 392.239 L 204.065 392.239 C 197.482 392.239 192.097 397.624 192.097 404.207 C 192.097 415.101 192.097 425.995 192.097 436.891 C 192.097 443.473 197.482 448.86 204.065 448.86 L 204.065 448.86 C 210.649 448.86 216.035 443.473 216.035 436.891 C 216.035 425.995 216.035 415.101 216.035 404.207 C 216.035 397.624 210.649 392.239 204.065 392.239 Z " fill-rule="evenodd" fill="rgb(142,186,231)"/><path d=" M 200.151 404.667 C 191.381 404.667 184.271 411.777 184.271 420.549 C 184.271 429.32 191.381 436.429 200.151 436.429 C 208.923 436.429 216.035 429.32 216.035 420.549 C 216.035 411.777 208.923 404.667 200.151 404.667 Z " fill-rule="evenodd" fill="rgb(251,198,137)"/><path d=" M 200.151 404.667 C 196.438 404.667 193.022 405.943 190.315 408.08 C 193.33 407.703 194.205 410.131 192.786 411.401 C 192.097 412.019 187.794 410.817 187.723 420.895 C 187.651 430.972 193.974 428.337 193.65 430.907 C 193.406 432.841 192.161 433.204 190.219 432.937 C 192.938 435.123 196.394 436.429 200.151 436.429 C 208.923 436.429 216.035 429.32 216.035 420.549 C 216.035 411.777 208.923 404.667 200.151 404.667 Z " fill-rule="evenodd" fill="rgb(47,45,45)"/><path d=" M 204.065 295.565 L 204.065 295.565 C 197.482 295.565 192.097 300.951 192.097 307.536 C 192.097 318.431 192.097 329.325 192.097 340.22 C 192.097 346.804 197.482 352.188 204.065 352.188 L 204.065 352.188 C 210.649 352.188 216.035 346.804 216.035 340.22 C 216.035 329.325 216.035 318.431 216.035 307.536 C 216.035 300.951 210.649 295.565 204.065 295.565 Z " fill-rule="evenodd" fill="rgb(142,186,231)"/><path d=" M 200.151 307.995 C 191.381 307.995 184.271 315.107 184.271 323.877 C 184.271 332.649 191.381 339.759 200.151 339.759 C 208.923 339.759 216.035 332.649 216.035 323.877 C 216.035 315.107 208.923 307.995 200.151 307.995 Z " fill-rule="evenodd" fill="rgb(251,198,137)"/><path d=" M 200.151 307.995 C 196.438 307.995 193.022 309.273 190.315 311.408 C 193.33 311.031 194.205 313.459 192.786 314.728 C 192.097 315.345 187.794 314.147 187.723 324.223 C 187.651 334.301 193.974 331.668 193.65 334.235 C 193.406 336.168 192.161 336.536 190.219 336.268 C 192.938 338.452 196.394 339.759 200.151 339.759 C 208.923 339.759 216.035 332.649 216.035 323.877 C 216.035 315.107 208.923 307.995 200.151 307.995 Z " fill-rule="evenodd" fill="rgb(47,45,45)"/><path d=" M 204.067 198.895 L 204.065 198.895 C 197.482 198.895 192.097 204.28 192.097 210.864 L 192.097 243.549 C 192.097 250.132 197.482 255.517 204.065 255.517 L 204.067 255.517 C 210.649 255.517 216.035 250.132 216.035 243.549 L 216.035 210.864 C 216.035 204.28 210.649 198.895 204.067 198.895 Z " fill-rule="evenodd" fill="rgb(142,186,231)"/><path d=" M 200.154 243.088 C 208.901 243.088 216.037 235.953 216.037 227.207 C 216.037 218.459 208.901 211.325 200.154 211.325 C 191.407 211.325 184.273 218.459 184.273 227.207 C 184.273 235.953 191.407 243.088 200.154 243.088 Z " fill-rule="evenodd" fill="rgb(251,198,137)"/><path d=" M 200.151 211.325 C 196.438 211.325 193.022 212.6 190.315 214.737 C 193.33 214.36 194.205 216.788 192.786 218.059 C 192.097 218.675 187.794 217.476 187.723 227.553 C 187.651 237.629 193.974 234.997 193.65 237.565 C 193.406 239.5 192.161 239.864 190.219 239.597 C 192.938 241.78 196.394 243.088 200.151 243.088 C 208.923 243.088 216.035 235.979 216.035 227.207 C 216.035 218.435 208.923 211.325 200.151 211.325 Z " fill-rule="evenodd" fill="rgb(47,45,45)"/><path d=" M 646.409 571.619 L 658.378 571.619 L 658.377 25.66 L 646.409 25.66 L 646.409 571.619 Z " fill-rule="evenodd" fill="rgb(226,241,152)"/><path d=" M 652.335 298.328 L 652.333 298.328 C 645.749 298.328 640.365 303.713 640.365 310.296 L 640.365 342.981 C 640.365 349.565 645.749 354.951 652.333 354.951 L 652.335 354.951 C 658.917 354.951 664.302 349.565 664.302 342.981 L 664.302 310.296 C 664.302 303.713 658.917 298.328 652.335 298.328 Z " fill-rule="evenodd" fill="rgb(142,186,231)"/><path d=" M 648.419 342.521 C 657.167 342.521 664.302 335.385 664.302 326.639 C 664.302 317.891 657.167 310.757 648.419 310.757 C 639.673 310.757 632.539 317.891 632.539 326.639 C 632.539 335.385 639.673 342.521 648.419 342.521 Z " fill-rule="evenodd" fill="rgb(251,198,137)"/><path d=" M 648.419 310.757 C 644.706 310.757 641.289 312.033 638.582 314.169 C 641.598 313.792 642.473 316.221 641.054 317.491 C 640.365 318.108 636.062 316.908 635.991 326.985 C 635.918 337.061 642.241 334.429 641.918 336.997 C 641.674 338.931 640.429 339.297 638.487 339.029 C 641.206 341.213 644.662 342.521 648.419 342.521 C 657.191 342.521 664.302 335.409 664.302 326.639 C 664.302 317.867 657.191 310.757 648.419 310.757 Z " fill-rule="evenodd" fill="rgb(47,45,45)"/><path d=" M 646.409 59.612 L 658.379 59.612 C 661.957 59.612 664.887 56.684 664.887 53.105 L 664.887 12.493 C 664.887 5.621 659.266 0 652.394 0 L 652.394 0 C 645.522 0 639.901 5.621 639.901 12.493 L 639.901 53.105 C 639.901 56.684 642.83 59.612 646.409 59.612 Z " fill-rule="evenodd" fill="rgb(151,26,31)"/><path d=" M 649.059 49.487 L 649.059 49.487 C 652.35 49.487 655.043 46.793 655.043 43.501 L 655.043 11.985 C 655.043 8.693 652.35 6.001 649.059 6.001 L 649.059 6.001 C 645.767 6.001 643.073 8.693 643.073 11.985 L 643.073 43.501 C 643.073 46.793 645.767 49.487 649.059 49.487 Z " fill-rule="evenodd" fill="rgb(204,45,35)"/><path d=" M 646.409 64.217 L 658.377 64.217 L 658.377 59.612 L 646.409 59.612 L 646.409 64.217 Z " fill-rule="evenodd" fill="rgb(203,223,131)"/><path d=" M 407.298 573.619 L 419.267 573.619 L 419.267 27.66 L 407.298 27.66 L 407.298 573.619 Z " fill-rule="evenodd" fill="rgb(226,241,152)"/><path d=" M 407.298 59.612 L 419.267 59.612 C 422.847 59.612 425.777 56.684 425.777 53.105 L 425.777 12.493 C 425.777 5.621 420.155 0 413.283 0 L 413.283 0 C 406.41 0 400.79 5.621 400.79 12.493 L 400.79 53.105 C 400.79 56.684 403.721 59.612 407.298 59.612 Z " fill-rule="evenodd" fill="rgb(151,26,31)"/><path d=" M 409.947 49.487 L 409.947 49.487 C 413.239 49.487 415.933 46.793 415.933 43.501 L 415.933 11.985 C 415.933 8.693 413.239 6.001 409.947 6.001 L 409.947 6.001 C 406.658 6.001 403.962 8.693 403.962 11.985 L 403.962 43.501 C 403.962 46.793 406.658 49.487 409.947 49.487 Z " fill-rule="evenodd" fill="rgb(204,45,35)"/><path d=" M 407.298 64.217 L 419.267 64.217 L 419.267 59.612 L 407.298 59.612 L 407.298 64.217 Z " fill-rule="evenodd" fill="rgb(203,223,131)"/><path d=" M 413.222 443.335 L 413.222 443.335 C 406.637 443.335 401.254 448.719 401.254 455.303 L 401.254 487.988 C 401.254 494.572 406.637 499.956 413.222 499.956 L 413.222 499.956 C 419.805 499.956 425.19 494.572 425.19 487.988 L 425.19 455.303 C 425.19 448.719 419.805 443.335 413.222 443.335 Z " fill-rule="evenodd" fill="rgb(142,186,231)"/><path d=" M 409.311 487.528 C 418.058 487.528 425.191 480.392 425.191 471.644 C 425.191 462.897 418.058 455.763 409.311 455.763 C 400.563 455.763 393.429 462.897 393.429 471.644 C 393.429 480.392 400.563 487.528 409.311 487.528 Z " fill-rule="evenodd" fill="rgb(251,198,137)"/><path d=" M 409.309 455.763 C 405.593 455.763 402.178 457.04 399.471 459.176 C 402.486 458.799 403.359 461.225 401.945 462.496 C 401.254 463.115 396.951 461.915 396.878 471.992 C 396.807 482.069 403.131 479.435 402.805 482.004 C 402.563 483.937 401.319 484.303 399.374 484.035 C 402.095 486.22 405.549 487.528 409.31 487.528 C 418.081 487.528 425.19 480.417 425.19 471.645 C 425.19 462.875 418.081 455.763 409.309 455.763 Z " fill-rule="evenodd" fill="rgb(47,45,45)"/><path d=" M 413.222 346.664 L 413.222 346.664 C 406.639 346.664 401.254 352.049 401.254 358.633 C 401.254 369.529 401.254 380.421 401.254 391.316 C 401.254 397.9 406.639 403.284 413.222 403.284 L 413.222 403.284 C 419.805 403.284 425.19 397.9 425.19 391.316 C 425.19 380.421 425.19 369.529 425.19 358.633 C 425.19 352.049 419.805 346.664 413.222 346.664 Z " fill-rule="evenodd" fill="rgb(142,186,231)"/><path d=" M 409.309 359.093 C 400.538 359.093 393.427 366.203 393.427 374.973 C 393.427 383.747 400.538 390.856 409.309 390.856 C 418.081 390.856 425.19 383.747 425.19 374.973 C 425.19 366.203 418.081 359.093 409.309 359.093 Z " fill-rule="evenodd" fill="rgb(251,198,137)"/><path d=" M 409.309 359.093 C 405.593 359.093 402.178 360.368 399.471 362.507 C 402.486 362.128 403.359 364.556 401.945 365.827 C 401.254 366.443 396.951 365.244 396.878 375.32 C 396.807 385.397 403.131 382.765 402.805 385.332 C 402.563 387.265 401.319 387.633 399.374 387.365 C 402.095 389.548 405.549 390.856 409.309 390.856 C 418.081 390.856 425.19 383.747 425.19 374.973 C 425.19 366.203 418.081 359.093 409.309 359.093 Z " fill-rule="evenodd" fill="rgb(47,45,45)"/><path d=" M 413.222 249.992 L 413.222 249.992 C 406.639 249.992 401.254 255.379 401.254 261.961 C 401.254 272.856 401.254 283.751 401.254 294.645 C 401.254 301.228 406.639 306.613 413.222 306.613 L 413.222 306.613 C 419.805 306.613 425.19 301.228 425.19 294.645 C 425.19 283.751 425.19 272.856 425.19 261.961 C 425.19 255.379 419.805 249.992 413.222 249.992 Z " fill-rule="evenodd" fill="rgb(142,186,231)"/><path d=" M 409.309 262.423 C 400.538 262.423 393.427 269.532 393.427 278.303 C 393.427 287.075 400.538 294.184 409.309 294.184 C 418.081 294.184 425.19 287.075 425.19 278.303 C 425.19 269.532 418.081 262.423 409.309 262.423 Z " fill-rule="evenodd" fill="rgb(251,198,137)"/><path d=" M 409.309 262.423 C 405.593 262.423 402.178 263.697 399.471 265.835 C 402.486 265.456 403.359 267.885 401.945 269.156 C 401.254 269.773 396.951 268.572 396.878 278.651 C 396.807 288.725 403.131 286.093 402.805 288.663 C 402.563 290.596 401.319 290.96 399.374 290.693 C 402.095 292.879 405.549 294.184 409.309 294.184 C 418.081 294.184 425.19 287.075 425.19 278.303 C 425.19 269.532 418.081 262.423 409.309 262.423 Z " fill-rule="evenodd" fill="rgb(47,45,45)"/><path d=" M 413.222 153.321 L 413.222 153.321 C 406.637 153.321 401.254 158.707 401.254 165.289 L 401.254 197.976 C 401.254 204.557 406.637 209.944 413.222 209.944 L 413.222 209.944 C 419.805 209.944 425.19 204.557 425.19 197.976 L 425.19 165.289 C 425.19 158.707 419.805 153.321 413.222 153.321 Z " fill-rule="evenodd" fill="rgb(142,186,231)"/><path d=" M 409.311 197.515 C 418.058 197.515 425.191 190.38 425.191 181.633 C 425.191 172.885 418.058 165.751 409.311 165.751 C 400.563 165.751 393.429 172.885 393.429 181.633 C 393.429 190.38 400.563 197.515 409.311 197.515 Z " fill-rule="evenodd" fill="rgb(251,198,137)"/><path d=" M 409.309 165.751 C 405.593 165.751 402.178 167.028 399.471 169.165 C 402.486 168.787 403.359 171.215 401.945 172.485 C 401.254 173.103 396.951 171.903 396.878 181.979 C 396.807 192.056 403.131 189.424 402.805 191.992 C 402.563 193.925 401.318 194.291 399.374 194.023 C 402.095 196.207 405.549 197.515 409.309 197.515 C 418.081 197.515 425.19 190.404 425.19 181.633 C 425.19 172.861 418.081 165.751 409.309 165.751 Z " fill-rule="evenodd" fill="rgb(47,45,45)"/><path d=" M 527.518 626.619 L 539.489 626.619 L 539.489 80.66 L 527.518 80.66 L 527.518 626.619 Z " fill-rule="evenodd" fill="rgb(226,241,152)"/><path d=" M 527.518 593.664 L 539.489 593.664 C 543.067 593.664 545.997 596.593 545.997 600.173 L 545.997 640.785 C 545.997 647.656 540.375 653.279 533.503 653.279 L 533.503 653.279 C 526.631 653.279 521.01 647.656 521.01 640.785 L 521.01 600.173 C 521.01 596.593 523.941 593.664 527.518 593.664 Z " fill-rule="evenodd" fill="rgb(151,26,31)"/><path d=" M 530.169 603.792 L 530.169 603.792 C 533.459 603.792 536.153 606.484 536.153 609.776 L 536.153 641.293 C 536.153 644.584 533.459 647.276 530.169 647.276 L 530.169 647.276 C 526.877 647.276 524.185 644.584 524.185 641.293 L 524.185 609.776 C 524.185 606.484 526.877 603.792 530.169 603.792 Z " fill-rule="evenodd" fill="rgb(204,45,35)"/><path d=" M 527.518 593.664 L 539.489 593.664 L 539.489 589.06 L 527.518 589.06 L 527.518 593.664 Z " fill-rule="evenodd" fill="rgb(203,223,131)"/><path d=" M 534.362 392.239 L 534.362 392.239 C 540.946 392.239 546.333 397.624 546.333 404.207 C 546.333 415.101 546.333 425.995 546.333 436.891 C 546.333 443.473 540.946 448.86 534.362 448.86 L 534.362 448.86 C 527.779 448.86 522.395 443.473 522.395 436.891 C 522.395 425.995 522.395 415.101 522.395 404.207 C 522.395 397.624 527.779 392.239 534.362 392.239 Z " fill-rule="evenodd" fill="rgb(204,45,35)"/><path d=" M 538.275 404.667 C 547.047 404.667 554.158 411.777 554.158 420.549 C 554.158 429.32 547.047 436.429 538.275 436.429 C 529.506 436.429 522.395 429.32 522.395 420.549 C 522.395 411.777 529.506 404.667 538.275 404.667 Z " fill-rule="evenodd" fill="rgb(251,198,137)"/><path d=" M 538.275 404.667 C 541.991 404.667 545.407 405.943 548.113 408.08 C 545.097 407.703 544.225 410.131 545.642 411.401 C 546.333 412.019 550.635 410.817 550.706 420.895 C 550.778 430.972 544.454 428.337 544.779 430.907 C 545.023 432.841 546.266 433.204 548.21 432.937 C 545.489 435.123 542.035 436.429 538.275 436.429 C 529.506 436.429 522.395 429.32 522.395 420.549 C 522.395 411.777 529.506 404.667 538.275 404.667 Z " fill-rule="evenodd" fill="rgb(47,45,45)"/><path d=" M 534.362 295.565 L 534.362 295.565 C 540.946 295.565 546.333 300.951 546.333 307.536 C 546.333 318.431 546.333 329.325 546.333 340.22 C 546.333 346.804 540.946 352.188 534.362 352.188 L 534.362 352.188 C 527.779 352.188 522.395 346.804 522.395 340.22 C 522.395 329.325 522.395 318.431 522.395 307.536 C 522.395 300.951 527.779 295.565 534.362 295.565 Z " fill-rule="evenodd" fill="rgb(204,45,35)"/><path d=" M 538.275 307.995 C 547.047 307.995 554.158 315.107 554.158 323.877 C 554.158 332.649 547.047 339.759 538.275 339.759 C 529.506 339.759 522.395 332.649 522.395 323.877 C 522.395 315.107 529.506 307.995 538.275 307.995 Z " fill-rule="evenodd" fill="rgb(251,198,137)"/><path d=" M 538.275 307.995 C 541.991 307.995 545.407 309.273 548.113 311.408 C 545.097 311.031 544.225 313.459 545.642 314.728 C 546.333 315.345 550.635 314.147 550.706 324.223 C 550.778 334.301 544.454 331.668 544.779 334.235 C 545.023 336.168 546.266 336.536 548.21 336.268 C 545.489 338.452 542.035 339.759 538.275 339.759 C 529.506 339.759 522.395 332.649 522.395 323.877 C 522.395 315.107 529.506 307.995 538.275 307.995 Z " fill-rule="evenodd" fill="rgb(47,45,45)"/><path d=" M 534.362 198.895 L 534.362 198.895 C 540.947 198.895 546.333 204.28 546.333 210.864 L 546.333 243.549 C 546.333 250.132 540.947 255.517 534.362 255.517 L 534.362 255.517 C 527.779 255.517 522.395 250.132 522.395 243.549 L 522.395 210.864 C 522.395 204.28 527.779 198.895 534.362 198.895 Z " fill-rule="evenodd" fill="rgb(204,45,35)"/><path d=" M 538.275 243.088 C 547.022 243.088 554.158 235.953 554.158 227.207 C 554.158 218.459 547.022 211.325 538.275 211.325 C 529.529 211.325 522.395 218.459 522.395 227.207 C 522.395 235.953 529.529 243.088 538.275 243.088 Z " fill-rule="evenodd" fill="rgb(251,198,137)"/><path d=" M 538.275 211.325 C 541.991 211.325 545.407 212.6 548.113 214.737 C 545.097 214.36 544.225 216.788 545.642 218.059 C 546.333 218.675 550.635 217.476 550.706 227.553 C 550.778 237.629 544.454 234.997 544.779 237.565 C 545.023 239.5 546.266 239.864 548.21 239.597 C 545.489 241.78 542.035 243.088 538.275 243.088 C 529.506 243.088 522.395 235.979 522.395 227.207 C 522.395 218.435 529.506 211.325 538.275 211.325 Z " fill-rule="evenodd" fill="rgb(47,45,45)"/><path d=" M 73.335 102.973 L 667.17 102.973 L 667.17 77.823 L 73.335 77.823 L 73.335 102.973 Z " fill-rule="evenodd" fill="rgb(118,154,42)"/><path d=" M 73.335 575.453 L 667.17 575.453 L 667.17 550.305 L 73.335 550.305 L 73.335 575.453 Z " fill-rule="evenodd" fill="rgb(118,154,42)"/></g></g></g></g></g></g></svg>